<mxfile host="app.diagrams.net" modified="2023-04-30T21:53:37.700Z" agent="Mozilla/5.0 (X11; Linux x86_64) AppleWebKit/537.36 (KHTML, like Gecko) Chrome/112.0.0.0 Safari/537.36" etag="CIuxwFFDSpVhgmxzZFNe" version="21.2.2" type="github">
  <diagram name="Page-1" id="jMOP8N9wvqpw-0GyW7RB">
    <mxGraphModel dx="1434" dy="774" grid="1" gridSize="10" guides="1" tooltips="1" connect="1" arrows="1" fold="1" page="1" pageScale="1" pageWidth="850" pageHeight="1100" math="0" shadow="0">
      <root>
        <mxCell id="0" />
        <mxCell id="1" parent="0" />
        <mxCell id="d_m2SA40f0KJhwYKVJD9-1" value="Priviate Key Generator" style="points=[[0,0],[0.25,0],[0.5,0],[0.75,0],[1,0],[1,0.25],[1,0.5],[1,0.75],[1,1],[0.75,1],[0.5,1],[0.25,1],[0,1],[0,0.75],[0,0.5],[0,0.25]];outlineConnect=0;gradientColor=none;html=1;whiteSpace=wrap;fontSize=12;fontStyle=0;container=1;pointerEvents=0;collapsible=0;recursiveResize=0;shape=mxgraph.aws4.group;grIcon=mxgraph.aws4.group_on_premise;strokeColor=#5A6C86;fillColor=none;verticalAlign=top;align=left;spacingLeft=30;fontColor=#5A6C86;dashed=0;" vertex="1" parent="1">
          <mxGeometry x="380" y="210" width="130" height="130" as="geometry" />
        </mxCell>
        <mxCell id="d_m2SA40f0KJhwYKVJD9-2" value="Мастер хувийн түлхүүр" style="strokeWidth=1;html=1;shadow=0;dashed=0;shape=mxgraph.ios.iTextInput;strokeColor=#444444;buttonText=;fontSize=8;whiteSpace=wrap;align=left;" vertex="1" parent="d_m2SA40f0KJhwYKVJD9-1">
          <mxGeometry x="5" y="90" width="75" height="30" as="geometry" />
        </mxCell>
        <mxCell id="d_m2SA40f0KJhwYKVJD9-3" value="Мастер нийтийн түлхүүр" style="strokeWidth=1;html=1;shadow=0;dashed=0;shape=mxgraph.ios.iTextInput;strokeColor=#444444;buttonText=;fontSize=8;whiteSpace=wrap;align=left;" vertex="1" parent="d_m2SA40f0KJhwYKVJD9-1">
          <mxGeometry x="5" y="50" width="75" height="30" as="geometry" />
        </mxCell>
        <mxCell id="d_m2SA40f0KJhwYKVJD9-4" value="Alice" style="shape=actor;whiteSpace=wrap;html=1;" vertex="1" parent="1">
          <mxGeometry x="100" y="260" width="40" height="60" as="geometry" />
        </mxCell>
        <mxCell id="d_m2SA40f0KJhwYKVJD9-5" value="Bob" style="shape=actor;whiteSpace=wrap;html=1;" vertex="1" parent="1">
          <mxGeometry x="740" y="260" width="40" height="60" as="geometry" />
        </mxCell>
        <mxCell id="d_m2SA40f0KJhwYKVJD9-6" value="" style="endArrow=classic;html=1;rounded=0;exitX=0.25;exitY=0.2;exitDx=0;exitDy=0;entryX=1;entryY=0.5;entryDx=0;entryDy=0;exitPerimeter=0;" edge="1" parent="1" source="d_m2SA40f0KJhwYKVJD9-5" target="d_m2SA40f0KJhwYKVJD9-1">
          <mxGeometry width="50" height="50" relative="1" as="geometry">
            <mxPoint x="460" y="300" as="sourcePoint" />
            <mxPoint x="530" y="280" as="targetPoint" />
          </mxGeometry>
        </mxCell>
        <mxCell id="d_m2SA40f0KJhwYKVJD9-7" value="" style="endArrow=classic;html=1;rounded=0;entryX=0;entryY=0.5;entryDx=0;entryDy=0;exitX=0.75;exitY=0.25;exitDx=0;exitDy=0;exitPerimeter=0;" edge="1" parent="1" source="d_m2SA40f0KJhwYKVJD9-4" target="d_m2SA40f0KJhwYKVJD9-1">
          <mxGeometry width="50" height="50" relative="1" as="geometry">
            <mxPoint x="140" y="280" as="sourcePoint" />
            <mxPoint x="370" y="280" as="targetPoint" />
            <Array as="points" />
          </mxGeometry>
        </mxCell>
        <mxCell id="d_m2SA40f0KJhwYKVJD9-8" value="" style="endArrow=classic;html=1;rounded=0;exitX=1;exitY=0.75;exitDx=0;exitDy=0;entryX=0;entryY=0.75;entryDx=0;entryDy=0;" edge="1" parent="1" source="d_m2SA40f0KJhwYKVJD9-4" target="d_m2SA40f0KJhwYKVJD9-1">
          <mxGeometry width="50" height="50" relative="1" as="geometry">
            <mxPoint x="140" y="370" as="sourcePoint" />
            <mxPoint x="190" y="320" as="targetPoint" />
          </mxGeometry>
        </mxCell>
        <mxCell id="d_m2SA40f0KJhwYKVJD9-9" value="" style="endArrow=classic;html=1;rounded=0;exitX=0;exitY=0.75;exitDx=0;exitDy=0;entryX=1;entryY=0.75;entryDx=0;entryDy=0;" edge="1" parent="1" source="d_m2SA40f0KJhwYKVJD9-5" target="d_m2SA40f0KJhwYKVJD9-1">
          <mxGeometry width="50" height="50" relative="1" as="geometry">
            <mxPoint x="420" y="420" as="sourcePoint" />
            <mxPoint x="540" y="340" as="targetPoint" />
          </mxGeometry>
        </mxCell>
        <mxCell id="d_m2SA40f0KJhwYKVJD9-10" value="1. Мастер нийтийн түлхүүр авна" style="text;html=1;strokeColor=none;fillColor=none;align=center;verticalAlign=middle;whiteSpace=wrap;rounded=0;" vertex="1" parent="1">
          <mxGeometry x="180" y="220" width="120" height="30" as="geometry" />
        </mxCell>
        <mxCell id="d_m2SA40f0KJhwYKVJD9-11" value="2. Адилтган танилт хийж өөрийн хувийн түлхүүрийг авна" style="text;html=1;strokeColor=none;fillColor=none;align=center;verticalAlign=middle;whiteSpace=wrap;rounded=0;" vertex="1" parent="1">
          <mxGeometry x="150" y="330" width="202.5" height="30" as="geometry" />
        </mxCell>
        <mxCell id="d_m2SA40f0KJhwYKVJD9-12" value="" style="endArrow=none;html=1;rounded=0;exitX=0.5;exitY=1;exitDx=0;exitDy=0;entryX=0.5;entryY=1;entryDx=0;entryDy=0;" edge="1" parent="1" source="d_m2SA40f0KJhwYKVJD9-4" target="d_m2SA40f0KJhwYKVJD9-5">
          <mxGeometry width="50" height="50" relative="1" as="geometry">
            <mxPoint x="420" y="420" as="sourcePoint" />
            <mxPoint x="470" y="370" as="targetPoint" />
            <Array as="points">
              <mxPoint x="120" y="440" />
              <mxPoint x="760" y="440" />
            </Array>
          </mxGeometry>
        </mxCell>
        <mxCell id="d_m2SA40f0KJhwYKVJD9-13" value="3. Мастер нийтийн түлхүүр авна" style="text;html=1;strokeColor=none;fillColor=none;align=center;verticalAlign=middle;whiteSpace=wrap;rounded=0;" vertex="1" parent="1">
          <mxGeometry x="590" y="220" width="120" height="30" as="geometry" />
        </mxCell>
        <mxCell id="d_m2SA40f0KJhwYKVJD9-14" value="4. Адилтган танилт хийж өөрийн хувийн түлхүүрийг авна" style="text;html=1;strokeColor=none;fillColor=none;align=center;verticalAlign=middle;whiteSpace=wrap;rounded=0;" vertex="1" parent="1">
          <mxGeometry x="537.5" y="330" width="202.5" height="30" as="geometry" />
        </mxCell>
        <mxCell id="d_m2SA40f0KJhwYKVJD9-15" value="Хамгаалагдсан мессеж" style="text;html=1;strokeColor=none;fillColor=none;align=center;verticalAlign=middle;whiteSpace=wrap;rounded=0;" vertex="1" parent="1">
          <mxGeometry x="344" y="450" width="202.5" height="30" as="geometry" />
        </mxCell>
      </root>
    </mxGraphModel>
  </diagram>
</mxfile>
